<?xml version="1.0" standalone="no"?>
<!DOCTYPE svg PUBLIC "-//W3C//DTD SVG 20010904//EN"
 "http://www.w3.org/TR/2001/REC-SVG-20010904/DTD/svg10.dtd">
<svg version="1.0" xmlns="http://www.w3.org/2000/svg"
 width="16.000000pt" height="16.000000pt" viewBox="0 0 16.000000 16.000000"
 preserveAspectRatio="xMidYMid meet">
<metadata>
Created by potrace 1.11, written by Peter Selinger 2001-2013
</metadata>
<g transform="translate(0.000000,16.000000) scale(0.003125,-0.003125)"
fill="#000000" stroke="none">
<path d="M4057 4086 c-15 -15 -22 -40 -61 -201 -13 -55 -40 -161 -60 -237 -19
-75 -37 -149 -39 -165 l-4 -28 -314 0 c-173 0 -334 3 -358 6 -40 6 -48 4 -74
-22 -20 -20 -27 -37 -25 -56 l3 -26 150 1 c456 4 588 2 600 -10 5 -5 -36 -195
-101 -458 -30 -124 -57 -232 -59 -240 -27 -111 -80 -333 -105 -440 -40 -174
-97 -369 -116 -398 -23 -35 -22 -97 2 -129 28 -38 95 -75 110 -62 7 6 20 45
29 87 9 42 30 124 46 182 38 141 46 186 54 288 2 29 12 67 23 85 13 21 20 48
20 79 -1 26 4 54 11 62 7 8 14 33 16 54 1 22 6 46 10 53 5 7 12 29 16 48 4 20
19 70 33 111 15 44 22 78 17 83 -5 5 0 23 14 43 20 29 44 138 37 166 -1 4 10
43 24 85 14 43 33 112 43 153 10 41 24 93 30 115 l10 40 323 1 c281 0 327 3
355 17 37 19 51 53 32 73 -16 15 -278 19 -543 7 l-148 -6 5 44 c5 45 37 164
83 312 27 89 32 190 10 242 -21 50 -69 70 -99 41z m-461 -669 c4 -4 -2 -7 -14
-7 -12 0 -22 4 -22 9 0 10 26 9 36 -2z m114 4 c0 -5 -16 -11 -35 -13 -24 -3
-35 0 -35 9 0 8 13 13 35 13 19 0 35 -4 35 -9z m138 -6 c3 -3 -22 -5 -56 -5
-34 0 -62 4 -62 9 0 9 108 6 118 -4z m18 -402 c-10 -10 -19 5 -10 18 6 11 8
11 12 0 2 -7 1 -15 -2 -18z m-30 -135 c-7 -46 -46 -118 -46 -85 0 10 8 34 17
55 17 38 20 47 22 71 0 8 4 12 7 8 4 -3 3 -25 0 -49z m-50 -170 c-9 -65 -34
-150 -47 -162 -13 -12 -11 1 23 127 22 85 33 100 24 35z m-50 -210 c-10 -54
-19 -78 -27 -73 -11 7 -3 63 12 81 16 20 20 18 15 -8z m-26 -143 c0 -8 -7 -15
-15 -15 -9 0 -12 6 -9 15 4 8 10 15 15 15 5 0 9 -7 9 -15z m-16 -50 c-4 -8 -8
-15 -10 -15 -2 0 -4 7 -4 15 0 8 4 15 10 15 5 0 7 -7 4 -15z"/>
<path d="M943 3938 c-5 -7 -15 -42 -22 -78 -16 -81 -55 -203 -138 -435 -138
-384 -205 -571 -215 -600 -5 -16 -14 -39 -18 -50 -21 -50 -66 -183 -111 -335
-28 -91 -54 -178 -60 -195 -5 -16 -39 -129 -75 -250 -49 -163 -74 -233 -100
-270 -26 -39 -32 -57 -29 -84 8 -63 80 -130 124 -116 9 2 34 7 56 10 22 4 49
9 59 12 17 5 131 5 416 0 47 -1 130 1 185 5 241 18 245 19 245 76 0 51 -22 79
-67 86 -21 4 -141 8 -268 11 -220 4 -427 13 -463 20 -9 2 -27 4 -39 4 -26 1
-30 26 -14 77 5 16 39 137 76 269 36 132 95 321 130 420 36 99 92 263 126 365
34 102 81 228 104 280 64 142 121 287 144 363 30 98 81 314 81 341 0 55 -98
112 -127 74z m-272 -970 c-13 -36 -32 -35 -20 1 6 17 15 29 20 26 4 -3 5 -15
0 -27z m-57 -150 c-166 -516 -230 -708 -236 -708 -10 0 27 122 184 600 38 117
64 180 72 180 2 0 -7 -33 -20 -72z"/>
<path d="M2005 3877 c-7 -12 -17 -44 -21 -72 -4 -27 -24 -104 -44 -170 -117
-372 -267 -905 -320 -1141 -7 -27 -13 -56 -15 -64 -2 -8 -40 -162 -84 -341
-102 -415 -103 -417 -106 -462 -4 -53 13 -36 76 77 28 50 52 92 54 94 1 1 17
-11 36 -28 56 -49 70 -49 181 9 131 68 194 115 301 223 49 50 91 87 94 84 4
-3 4 -6 1 -6 -12 0 24 -115 45 -145 45 -63 134 -125 180 -125 19 0 79 14 133
30 79 24 105 37 132 65 56 60 47 62 -83 15 -42 -15 -83 -22 -135 -21 -133 0
-154 18 -156 135 -1 45 1 86 3 93 4 9 18 6 51 -11 26 -13 59 -22 74 -21 31 4
193 83 253 125 116 80 215 267 215 405 0 45 -19 69 -95 116 -69 43 -101 52
-166 46 -122 -11 -236 -101 -329 -260 l-45 -77 -18 42 c-34 80 -97 128 -170
131 -34 1 -65 -12 -165 -67 -67 -38 -125 -66 -128 -63 -6 6 14 74 54 182 16
44 37 114 45 155 22 103 117 381 237 695 46 119 54 187 30 260 -27 87 -87 134
-115 92z m687 -1184 c26 -31 28 -52 9 -112 -48 -156 -138 -256 -304 -342 l-98
-50 7 38 c10 56 52 172 82 223 32 56 136 189 167 213 23 17 89 45 111 46 6 1
18 -7 26 -16z m-577 -277 c-19 -131 -184 -322 -417 -482 -67 -46 -124 -59
-115 -26 3 9 22 89 43 177 20 88 45 177 56 198 33 66 159 141 313 188 l90 27
18 -21 c13 -15 16 -30 12 -61z"/>
<path d="M1517 3695 c-9 -8 -24 -43 -36 -77 -62 -192 -59 -283 9 -301 38 -10
107 126 118 233 3 36 6 71 5 78 0 6 -1 19 -2 27 -1 20 -41 55 -62 55 -10 0
-24 -7 -32 -15z"/>
<path d="M4833 3403 c-15 -3 -24 -14 -28 -36 -13 -64 -68 -214 -111 -302 -56
-116 -230 -382 -273 -417 -18 -16 -41 -28 -52 -28 -17 0 -19 7 -19 60 0 32 4
81 10 107 5 26 12 62 15 78 3 17 8 39 10 50 42 217 35 274 -40 309 -73 35
-115 9 -110 -67 1 -23 -3 -75 -11 -114 -32 -176 -36 -272 -14 -375 19 -89 52
-145 113 -189 102 -75 126 -66 260 94 31 37 57 65 57 63 0 -5 -28 -153 -36
-186 -3 -14 -7 -36 -10 -50 -17 -85 -69 -310 -90 -395 -14 -55 -28 -111 -31
-125 -9 -51 -75 -238 -110 -310 -66 -138 -178 -283 -278 -360 -32 -25 -108
-70 -169 -100 -61 -31 -111 -62 -111 -69 0 -19 64 -40 144 -46 54 -5 78 -2
127 16 67 25 98 47 187 136 145 144 232 289 256 424 5 30 21 82 36 117 35 84
115 394 261 1017 41 177 101 388 129 456 36 88 40 124 20 175 -25 66 -56 82
-132 67z m-197 -1034 c-12 -28 -15 -30 -15 -12 -1 31 21 83 26 62 2 -9 -3 -32
-11 -50z m-36 -155 c-21 -79 -25 -62 -9 34 8 43 14 60 20 50 4 -8 0 -43 -11
-84z m-40 -191 c-8 -57 -82 -338 -112 -426 -23 -69 -78 -179 -108 -217 l-20
-25 14 40 c7 23 29 72 49 110 34 69 62 142 71 187 8 41 56 200 66 219 6 10 9
22 8 26 -4 14 24 133 32 133 3 0 3 -21 0 -47z"/>
<path d="M3077 3086 c-8 -8 -17 -35 -20 -59 -12 -84 -79 -302 -112 -366 -24
-44 -32 -69 -26 -80 5 -10 1 -43 -10 -86 -36 -130 -108 -430 -114 -470 -4 -22
-11 -57 -16 -77 -11 -43 -4 -81 18 -100 13 -10 19 -8 39 17 50 62 97 193 193
530 36 126 39 132 92 184 105 105 215 174 294 184 67 9 137 17 194 22 29 2 55
6 58 8 10 11 -69 48 -132 62 -109 26 -248 17 -338 -20 -16 -7 -17 -1 -14 71 5
88 -5 127 -41 167 -29 30 -44 34 -65 13z"/>
<path d="M1368 2974 c-15 -8 -35 -28 -43 -44 -17 -32 -99 -383 -122 -515 -2
-16 -13 -73 -23 -125 -26 -132 -22 -311 9 -396 25 -70 52 -100 108 -119 46
-16 61 -6 92 59 20 42 43 126 34 126 -3 0 -26 -20 -51 -45 -40 -39 -47 -43
-55 -29 -10 17 -4 262 8 319 3 17 13 66 21 110 24 124 59 251 98 358 21 60 38
125 41 170 6 69 6 73 -22 104 -35 39 -60 46 -95 27z"/>
<path d="M1645 1355 c-137 -50 -140 -285 -5 -337 45 -17 109 -11 145 13 32 22
65 75 65 103 0 23 -29 13 -38 -14 -35 -100 -157 -114 -213 -24 -43 70 -19 192
44 226 56 29 134 10 159 -40 13 -28 45 -37 40 -12 -17 75 -112 117 -197 85z"/>
<path d="M3094 1362 c-85 -28 -132 -137 -105 -239 26 -97 134 -145 223 -99 34
16 47 31 62 68 11 26 17 50 14 53 -12 12 -35 -8 -47 -41 -32 -87 -149 -92
-201 -9 -37 60 -29 156 17 207 22 24 79 41 111 33 14 -3 43 -25 64 -47 41 -45
67 -44 43 2 -29 57 -119 93 -181 72z"/>
<path d="M3606 1362 c-2 -4 -4 -30 -4 -57 0 -105 11 -95 -102 -95 l-100 0 0
75 c0 66 -2 75 -18 75 -17 0 -18 -12 -16 -167 2 -198 0 -183 19 -183 12 0 15
16 15 85 l0 86 103 -3 102 -3 0 -80 c0 -68 3 -80 17 -83 16 -3 18 11 17 171 0
142 -2 176 -14 181 -8 3 -16 2 -19 -2z"/>
<path d="M1924 1185 c0 -161 2 -175 18 -175 16 0 18 10 18 85 l0 86 102 -3
103 -3 -1 -82 c-1 -75 1 -83 17 -83 18 0 19 11 19 175 0 165 -1 175 -19 175
-17 0 -19 -8 -18 -72 l2 -73 -103 -3 -102 -3 0 76 c0 66 -2 75 -18 75 -18 0
-19 -12 -18 -175z"/>
<path d="M2289 1353 c-1 -5 -1 -66 -1 -137 0 -112 3 -132 19 -155 57 -76 191
-73 233 6 23 44 24 288 1 288 -12 0 -15 -25 -17 -134 -2 -121 -5 -135 -24
-156 -27 -28 -76 -39 -117 -24 -48 16 -61 56 -62 179 0 144 1 140 -16 140 -8
0 -15 -3 -16 -7z"/>
<path d="M2650 1343 c-1 -26 -1 -284 -1 -310 1 -14 7 -23 16 -23 16 0 17 6 15
95 l-1 61 75 1 c80 1 115 -16 117 -57 1 -11 3 -29 4 -40 1 -11 3 -29 4 -39 1
-17 32 -25 31 -8 0 4 0 29 0 56 0 39 -6 56 -26 80 -14 17 -21 31 -15 31 16 0
44 47 44 76 0 71 -45 94 -180 94 -72 0 -83 -2 -83 -17z m205 -27 c24 -18 28
-68 8 -93 -15 -18 -30 -23 -83 -26 -97 -5 -97 -6 -97 69 l-1 65 79 -2 c44 -1
86 -7 94 -13z"/>
</g>
</svg>
