<svg xmlns="http://www.w3.org/2000/svg" style="display: none;">

  <symbol id="phone" viewBox="0 0 16 16">
    <path d="M13.65.27c-.633-.44-1.326-.28-1.61.122-.17.244-1.952 2.914-2.15 3.24-.09.145-.132.318-.132.507 0 .24.07.51.21.77.136.25.58 1.03.798 1.41-.236.332-.842 1.12-2.087 2.362-1.24 1.235-2.04 1.845-2.38 2.08-.39-.216-1.17-.66-1.42-.794-.49-.253-.97-.28-1.3-.074-.3.2-2.96 1.97-3.21 2.15-.24.17-.37.48-.37.813 0 .263.08.542.25.785.012.03 1.69 2.37 2.66 2.34 2.723-.08 5.93-2.725 8.133-4.925 2.204-2.2 4.852-5.39 4.94-8.12v-.02c0-.953-2.324-2.632-2.346-2.65zm-3.304 10.09c-2.915 2.905-5.543 4.55-7.413 4.635-.354-.126-1.26-1.04-1.89-1.91-.044-.062-.07-.143-.07-.216 0-.02.002-.03.004-.05.41-.28 2.694-1.79 3.122-2.06.04 0 .15.01.32.1.17.09.68.37 1.39.77l.55.312.52-.364c.38-.27 1.22-.915 2.5-2.19 1.28-1.28 1.93-2.114 2.2-2.5l.36-.52-.32-.546c-.308-.53-.67-1.175-.78-1.384-.09-.17-.1-.282-.1-.313v-.01c.24-.38 1.79-2.71 2.074-3.12.04-.004.126 0 .233.077.88.633 1.8 1.53 1.93 1.882-.087 1.87-1.735 4.492-4.647 7.396z"/>
  </symbol>
  <symbol id="email" viewBox="0 0 16 16">
    <title>An envelope icon representing an email address</title>
    <path d="M8 0L0 5v11h16V5L8 0zm0 1l6.794 4.368-7.02 5.325-1.78-1.436.003-.005-.822-.655L1.19 5.38 8 1zM1 6.527l3.554 2.868L1 13.965V6.528zM1.527 15l3.845-4.944 2.117 1.708.23.233.03-.02.025.02.176-.175 2.548-1.93L14.472 15H1.527zM15 13.966l-3.662-4.71L15 6.48v7.486z"/>
  </symbol>
  <symbol id="post" viewBox="0 0 64 64">
    <path d="M8 46h28v-4H8v4zm52 6c0 1.105-.896 2-2 2H6c-1.104 0-2-.895-2-2V12c0-1.105.896-2 2-2h52c1.104 0 2 .895 2 2v40zm0-46H4c-2.21 0-4 1.79-4 4v44c0 2.207 1.79 4 4 4h56c2.21 0 4-1.793 4-4V10c0-2.21-1.79-4-4-4zM44 26h8v-8h-8v8zm-4 4h16V14H40v16zM8 38h28v-4.002H8V38z"/>
  </symbol>
  <symbol id="menu" viewBox="0 0 20 16">
    <title>A hamburger menu open</title>
    <path d="M1 2c-.6 0-1-.5-1-1 0-.6.4-1 1-1h18c.5 0 1 .4 1 1 0 .5-.5 1-1 1H1zm0 7c-.6 0-1-.4-1-1s.4-1 1-1h18c.5 0 1 .4 1 1s-.5 1-1 1H1zm0 7c-.6 0-1-.5-1-1 0-.6.4-1 1-1h18c.5 0 1 .4 1 1 0 .5-.5 1-1 1H1z"/>
  </symbol>
  <symbol id="menu-close" viewBox="0 0 16 16">
    <title>A cross icon to close the menu</title>
    <path d="M15.02.92c-.4-.4-1-.4-1.4 0L7.956 6.584 2.306.934c-.4-.4-1-.4-1.4 0-.414.414-.414 1.014-.014 1.414l5.65 5.65L.92 13.62c-.4.4-.4 1 0 1.4.4.4 1 .4 1.4 0l5.622-5.622 5.65 5.65c.4.4 1.014.386 1.414-.014.4-.4.4-1 0-1.4l-5.65-5.65L15.02 2.32c.4-.4.4-1 0-1.4z"/>
  </symbol>
  <symbol id="arrow-right" viewBox="0 0 16 16">
    <path d="M6,11.999l5-4l-5-4V11.999z M14-0.001H2c-1.104,0-2,0.896-2,2v12c0,1.104,0.896,2,2,2h12c1.105,0,2-0.896,2-2v-12
  		C16,0.895,15.105-0.001,14-0.001z M15,13.999c0,0.553-0.447,1-1,1H2c-0.552,0-1-0.447-1-1v-12c0-0.552,0.448-1,1-1h12
  		c0.553,0,1,0.448,1,1V13.999z"/>
  </symbol>
  <symbol id="chev-right" viewBox="0 0 16 16">
    <path d="M11.357 7.643l-6.04-5.5c-.187-.186-.49-.186-.675 0s-.186.487 0 .674L10.295 8l-5.65 5.183c-.187.186-.187.487 0 .674.185.186.487.186.673 0l6.038-5.5c.098-.1.143-.228.137-.355.005-.13-.038-.26-.136-.36z"/>
  </symbol>

  <symbol id="facebook" viewBox="0 0 268 268">
      <path d="M252.716.553H15.284C7.146.553.554 7.146.554 15.283v237.434c0 8.135 6.592 14.73 14.73 14.73H143.11V164.092h-34.782v-40.28h34.78V94.107c0-34.473 21.055-53.244 51.808-53.244 14.73 0 27.39 1.097 31.08 1.587v36.026l-21.33.01c-16.723 0-19.96 7.947-19.96 19.61v25.716h39.885l-5.19 40.28h-34.69v103.355h68.01c8.136 0 14.73-6.595 14.73-14.73V15.283c0-8.137-6.594-14.73-14.73-14.73"/>
  </symbol>
  <symbol id="instagram" viewBox="0 0 504 504">
    <path d="M252 45.47c67.266 0 75.233.257 101.797 1.47 24.562 1.12 37.9 5.224 46.78 8.673 11.757 4.57 20.15 10.03 28.965 18.845 8.815 8.815 14.275 17.208 18.844 28.966 3.45 8.878 7.554 22.217 8.675 46.778 1.215 26.565 1.47 34.532 1.47 101.798s-.255 75.233-1.47 101.797c-1.12 24.562-5.222 37.9-8.672 46.78-4.57 11.757-10.03 20.15-18.844 28.965-8.815 8.815-17.208 14.275-28.966 18.844-8.878 3.45-22.217 7.554-46.78 8.675-26.56 1.215-34.526 1.47-101.796 1.47-67.27 0-75.236-.255-101.796-1.47-24.562-1.12-37.9-5.222-46.778-8.672-11.76-4.57-20.152-10.03-28.967-18.844-8.815-8.815-14.275-17.208-18.844-28.966-3.45-8.878-7.554-22.217-8.675-46.778-1.212-26.566-1.47-34.533-1.47-101.8s.258-75.232 1.47-101.796c1.12-24.562 5.225-37.9 8.675-46.78 4.57-11.757 10.03-20.15 18.844-28.965 8.814-8.817 17.207-14.277 28.966-18.847 8.877-3.45 22.216-7.553 46.777-8.674 26.565-1.214 34.532-1.47 101.798-1.47m0-45.39c-68.417 0-76.995.29-103.865 1.514-26.815 1.224-45.127 5.482-61.152 11.71-16.566 6.438-30.615 15.052-44.62 29.057-14.005 14.006-22.62 28.055-29.057 44.62-6.228 16.026-10.486 34.338-11.71 61.153C.37 175.003.08 183.583.08 252s.29 76.997 1.515 103.866c1.224 26.815 5.482 45.127 11.71 61.152 6.438 16.565 15.052 30.615 29.057 44.62 14.005 14.005 28.054 22.62 44.62 29.057 16.025 6.228 34.337 10.486 61.152 11.71 26.87 1.226 35.448 1.515 103.866 1.515s76.997-.29 103.866-1.515c26.815-1.224 45.127-5.482 61.152-11.71 16.566-6.438 30.615-15.052 44.62-29.057 14.005-14.005 22.62-28.054 29.057-44.62 6.228-16.025 10.486-34.337 11.71-61.152 1.226-26.87 1.516-35.448 1.516-103.866s-.29-76.997-1.513-103.866c-1.224-26.815-5.482-45.127-11.71-61.152-6.438-16.566-15.052-30.615-29.057-44.62-14.006-14.005-28.055-22.62-44.62-29.057-16.026-6.228-34.338-10.486-61.153-11.71C328.997.37 320.417.08 252 .08"/>
    <path d="M252 122.635c-71.446 0-129.365 57.92-129.365 129.365 0 71.446 57.92 129.365 129.365 129.365 71.446 0 129.365-57.92 129.365-129.365 0-71.446-57.92-129.365-129.365-129.365zm0 213.34c-46.377 0-83.974-37.598-83.974-83.975 0-46.377 37.597-83.974 83.974-83.974s83.974 37.597 83.974 83.974-37.597 83.974-83.974 83.974zm164.706-218.45c0 16.695-13.534 30.23-30.23 30.23-16.696 0-30.23-13.535-30.23-30.23 0-16.697 13.534-30.23 30.23-30.23 16.696 0 30.23 13.533 30.23 30.23"/>
  </symbol>

  <symbol id="vimeo" viewBox="0 0 100 87">
    <path d="M99.95 20.384c-.444 9.753-7.243 23.108-20.393 40.058C65.96 78.148 54.457 87 45.047 87c-5.826 0-10.76-5.39-14.79-16.174l-8.07-29.654c-2.994-10.778-6.203-16.174-9.634-16.174-.748 0-3.366 1.577-7.848 4.72L0 23.643c4.935-4.345 9.804-8.69 14.594-13.04C21.176 4.907 26.117 1.91 29.41 1.607c7.783-.75 12.573 4.58 14.37 15.99 1.944 12.31 3.288 19.968 4.044 22.965 2.243 10.214 4.71 15.314 7.408 15.314 2.093 0 5.237-3.312 9.43-9.936 4.187-6.626 6.43-11.667 6.733-15.13.596-5.718-1.648-8.584-6.734-8.584-2.39 0-4.86.552-7.4 1.643C62.177 7.734 71.567-.098 85.427.35c10.275.302 15.12 6.98 14.527 20.032"/>
  </symbol>

  <symbol id="twitter" viewBox="0 0 16 16">
    <path d="M16 3.038c-.59.26-1.22.437-1.885.517.677-.407 1.198-1.05 1.443-1.816-.634.37-1.337.64-2.085.79-.598-.64-1.45-1.04-2.396-1.04-1.812 0-3.282 1.47-3.282 3.28 0 .26.03.51.085.75-2.728-.13-5.147-1.44-6.766-3.42C.83 2.58.67 3.14.67 3.75c0 1.14.58 2.143 1.46 2.732-.538-.017-1.045-.165-1.487-.41v.04c0 1.59 1.13 2.918 2.633 3.22-.276.074-.566.114-.865.114-.21 0-.41-.02-.61-.058.42 1.304 1.63 2.253 3.07 2.28-1.12.88-2.54 1.404-4.07 1.404-.26 0-.52-.015-.78-.045 1.46.93 3.18 1.474 5.04 1.474 6.04 0 9.34-5 9.34-9.33 0-.14 0-.28-.01-.42.64-.46 1.2-1.04 1.64-1.7z"/>
  </symbol>

  <symbol id="logo" viewBox="0 0 391 254">
      <path d="M219.2 119c-.6-4.5-5.6-5.9-8.6-8.4-6.9-5.3-16.7-4.1-23.7.3-9.1 5.7-14.7 15.1-19.5 24.4-1.1-4-2.6-8.1-5.9-10.7-3.8-3.7-9.7-5.1-14.5-2.8-5.7 3-11.2 6.4-17 9.3-.6.1-1.7.2-2.2.3 1.7-6.9 4.7-13.4 7-20 1.5-5.4 2.2-11.1 4-16.5 4-12.6 8.5-25 13-37.5 2.9-7.3 6.8-14.5 7.6-22.5.1-5.7-1.2-11.7-5.2-16-1.2-1.3-3.3-2.5-4.9-1.1-2.4 3.6-1.8 8.2-3.1 12.2-13.2 40.8-24.3 82.2-34.2 123.9-3.3 14.7-7.4 29.2-10.6 43.9-.6 2.5-.6 5-.3 7.5 4.3-5.3 6.9-11.8 10.4-17.6 2.8 2 5.1 5.1 8.5 6 3.8-.3 6.6-3.2 9.9-4.9 2.1-1 4.3-1.6 6.2-2.8 9.6-6.1 17.9-14.1 25-22.9 0 6.3 1.9 12.9 6.7 17.1 3.5 3.1 7.2 6.9 12.2 6.9 5.5-.8 10.8-2.7 16.1-4.3 3.9-1.1 6.4-4.5 8.2-8-6.9 1.4-13 5.5-20.3 5.2-4.5-.2-11.4.3-13.1-5.1-.8-5-.5-10.1.3-15 3.8 1.9 8.1 5.6 12.6 3.2 9.8-4.7 20.5-9.1 26.9-18.3 4.7-7.8 8.9-16.6 8.5-25.8zm-61.7 21c-2.3 8.4-8.3 15.2-14.3 21.3-7.1 6.2-14.3 12.4-22.2 17.7-1.9 1.4-4.2 1.8-6.5 1.6 1.3-9.3 4.3-18.3 6.3-27.5.7-4.8 4.2-8.8 8.2-11.3 5.9-3.7 12.1-7.2 19-8.6 2.7-.5 5.2-1.8 7.9-2.1 3 1.8 2 6.1 1.6 8.9zm48.9-18.5c-2.3 7.8-5.7 15.6-11.7 21.2-6.2 6-14.1 10-22 13.2 1.2-8.6 4.5-16.8 8.9-24.3 2.6-3.9 6.2-7.2 8.8-11.1 2.7-4.6 8.3-5.5 12.9-7.1 2.1 2.1 4.1 5 3.1 8.1zM108.6 33.5c3.2-2.9 8.5.3 8.4 4.3.7 9.6-2.2 19.6-8.7 26.8-2.3-.8-5.5-1.8-5.5-4.8-.7-9 2.5-17.9 5.8-26.3zM92 99.9c.8-3.7 3.2-7.7 7.1-8.6 3.3-.7 5.6 2.2 7 4.7 2.1 3 .5 6.6.3 9.9-.2 4.5-2.4 8.4-3.9 12.6-3.2 8.9-5.5 18.1-7.3 27.4-2.2 12-4.2 24.4-2.2 36.6 3.3-2.4 5.8-5.6 8.8-8.2-.2 5.5-2.2 10.8-5.6 15.2-.9 1.6-2.9 1.2-4.4.6-2.9-1-5.9-2.6-7.4-5.3-4.5-9.5-5.1-20.4-3.6-30.6 2.7-18.4 7.1-36.4 11.2-54.3zM236.4 82.4c3.2-1.5 5.6 2.1 6.8 4.5 3 5.3.9 11.5.9 17.2 8.8-4.3 19-4.2 28.5-2.5 4.3 1 8.8 2.4 11.9 5.6-9.3 1.2-19.2.4-28 4.1-6 2.9-11 7.5-16 11.8-2.1 1.8-4.4 3.7-5.6 6.3-3.4 13-7.6 25.7-11.6 38.6-1.8 6.2-4.4 12.4-9.2 16.9-2.2-1.8-3.5-4.4-2.7-7.2 2.9-17.2 7.5-34.2 12.2-51 .7-1.7-.6-3-1.3-4.3 4.5-5.5 6.7-12.3 8.2-19.2 1-4.9 3.1-9.5 3.8-14.4.3-2 .1-4.8 2.1-6.4z"/><path d="M372.4 55c-.7-3-4.2-2.2-6.4-2.3-10.9.6-21.8-1.2-32.6.4-5.9.6-11.8.4-17.7.5.2-2.9.2-6 1.2-8.8 1.9-5.3 2.8-10.9 4.6-16.3 2.6-7.8 5.3-16.7 1.7-24.6-1.2-3.3-6.4-4.6-8.5-1.5-2.7 6.9-3.3 14.4-5.4 21.4-2.8 9.8-5.6 19.6-7.3 29.6-16.7-.5-33.3.8-50-.3-3.5-.2-8-2.4-10.7 1.1-1.2 1.9-3.2 4.8-1.4 6.9 10.7-.8 21.5 1.5 32-1.2 2.7 1.2 5.5 1.4 8.2.2 2.3.6 4.6.8 6.9.1.5.1 1.5.3 2.1.5 4-.1 8 .5 12.1.7-4.9 24-11.2 47.8-17.1 71.6-3.6 16.4-7.1 32.9-12.2 49-1 3.8-4.2 7-3.7 11.1.3 4.6 4.5 7.6 8.4 9.4 1.7.9 3.8-.5 3.6-2.4 2.4-15.5 9.6-30.2 9.2-46.1.4-2.4 2.5-4.1 3.4-6.3.7-2.8-1.3-5.8.5-8.3 1.7-2.5 2.5-5.4 1.6-8.3 1.8-2 2.5-4.4 2.2-7 2.8-4 2.8-9 4.9-13.3-.4-.4-1.2-1.1-1.6-1.5 4.6-3.4 3.8-9.5 5.2-14.4-.3-2.7.1-5.4 1.3-7.9 3.5-8.4 4.6-17.5 7.1-26.2 8.6.8 17.4.8 26 .3 8.3-1 16.7 1 25 0 3.1-.8 7.9-2.2 7.4-6.1zm-97.9 1.6c.4-1.6 3.4-1.2 4.5-.5-.7 1.1-3.2.9-4.5.5zm12.5.4h-5.4l.2-2h5.3c0 .5-.1 1.5-.1 2zm2.9-.3c-.9 0-1.7-.4-2.3-1.2 4.2-.2 8.5-.1 12.7.3-3.3 1.3-6.9 1.1-10.4.9zm-5.1 92.3c0-1-.1-2.1-.1-3.1.5-.1 1.5-.2 2-.2-.6 1-1.3 2.1-1.9 3.3zm1.3-4.7c-1.9-.2-.6-3.8 1.1-2.9.5 1.3.1 2.2-1.1 2.9zm.9-6.2c-.7-3-.7-7.7 2.7-9-.1 3.2-1.2 6.3-2.7 9zm3.5-11.4l-1.9 1.7c1.5-6.3 2.7-12.8 5-18.9.4 5.9-1.6 11.6-3.1 17.2zm2.9-18.5c.7-3.2 1.2-6.9 4-9-.4-.3-1.1-.9-1.5-1.2l2.4-3c-.9 4.4-.5 10.5-4.9 13.2zm7.1-19.2c-1.6.7-2.1.1-1.5-1.6 1.7-.6 2.2-.1 1.5 1.6zM85.7 195.5c-7.3-2.6-15.1-.8-22.6-1.3-15-.7-30-.7-44.9-2.3.1-4.1 1.7-8 2.6-11.9 2-8 4.2-15.8 6.8-23.6 1.9-5.7 2.8-11.6 4.7-17.2C38.8 121.3 45.6 103.4 51 85c5-10.3 9.4-20.9 13.5-31.6 3-8.6 4.8-17.5 7.1-26.3.6-2.7 1.7-5.4 1.4-8.2-.9-3.6-4.8-5.7-8.1-6.5-3.7-.1-3.2 4.4-3.8 6.9-2.5 11.8-6.9 23-10.8 34.3-8.4 23.2-16.7 46.5-25 69.7-6.7 22.1-13.1 44.2-19.9 66.3-.9 2.9-3.9 4.6-4.9 7.4-1 2.7-.5 5.9 1.3 8.2 1.7 2.7 4.5 5.8 8.1 5.1 16-4.7 32.7-1.2 49.1-1.8 7.5-.3 14.9-.8 22.4-1.5 2.5-.3 5.9-.4 7-3.2.5-2.8-.1-6.5-2.7-8.3zm-45-105.8c.1 2.4-.5 4.9-2.5 6.5.2-2.3.3-5.1 2.5-6.5zm-21 61c5.1-15.1 9.5-30.5 14.8-45.6.9-2.1 1.2-4.8 3.3-6.1-5.9 19.2-12.4 38.1-18.5 57.2-.9 2.6-1.5 5.4-2.9 7.8-.2-4.6 2.1-8.9 3.3-13.3z"/><path d="M385.6 57.5c-2.7-1.7-5.9-.4-8.7.4-1.1 5-2.5 9.8-4.3 14.5-4.8 14.6-13.7 27.4-22.2 40.1-2.4 4.2-5.8 8.1-10.8 9.1-.9-4.5-.5-9.2.4-13.6 1.7-8.6 3.4-17.2 4.4-25.9 1.7-6.8-6.7-14.1-13.1-10.7-3 3-.4 7.8-1.4 11.5-2.4 12.5-5.2 25.6-1.2 38.1 1.6 6 6.3 10.6 11.5 13.8 2.5 1.6 6.2 2.5 8.6.2 5.2-4.9 10-10.2 14-16.1-.2 2.1-.4 4.2-.8 6.3-3.6 17.1-7.2 34.3-11.5 51.3-4 16.8-9.7 33.6-20.7 47.1-5 6.8-11.3 12.5-18.5 16.9-5.8 3.1-12.2 5-17.3 9.2 5.1 4 11.7 3.4 17.8 4 3.3-.7 6.3-2.3 9.5-3.3 1.8-.5 2.8-2 3.7-3.4 2.8-.7 5-2.5 6.1-5.2 3-1.5 5.5-4 6.7-7.2 5.9-5.7 10.1-13 13.2-20.6.7-2.6 1.4-5.1 2.2-7.7-1.5-3.4 1.9-6.1 2.9-9.2 3.8-11 6.4-22.4 9-33.8 3.5-10.2 5-21 8-31.4 3.7-17.4 7.8-34.8 13.1-51.8 1.5-4 4.1-7.8 4.1-12.2.1-3.8-1.3-8.2-4.7-10.4zm-33.1 128.6c-3.4 13.3-6.8 27.3-15.7 38.2 1.6-7.2 5.8-13.3 8.7-19.9 1.7-3.6 1.9-7.7 3.1-11.5 1.9-5.5 2.4-11.5 5.8-16.3l-1.2-.1c.8-4.4 2-8.7 3.4-12.9.7 7.8-2.5 15-4.1 22.5zm8.3-37.1c-.6 4.1-1.4 8.2-3.3 11.9.5-5.1 1.5-10.1 2.4-15.1.6 1 1.4 2 .9 3.2zm.8-4.8c-.7-3.1-.4-6.4 2.1-8.6-.1 3-.5 6-2.1 8.6zM114 228c4.2-5.9 13.6-6.8 18.9-1.9 1.8 1.6 2.5 3.9 3.3 6.1h-2.9c-1.3-5.2-7.2-8.2-12.2-6.3-10.3 3.7-9.4 22.5 1.8 24.2 5.6 1.1 10.1-3.8 10.7-9h2.8c-.7 3.3-1.7 6.8-4.5 8.9-5.8 4.7-15.6 2.6-19-4.1-2.7-5.5-2.5-12.7 1.1-17.9zM171.7 223.6h2.9c0 6.1-.1 12.2 0 18.4-.1 3 1.3 6.5 4.4 7.6 4.2 1.7 10.5.4 11.6-4.6.8-7.1.3-14.3.5-21.4.7 0 2.1.1 2.7.1 0 6.5.1 12.9-.1 19.4-.1 3.5-2.1 7-5.3 8.4-3.6 1.6-8.1 1.6-11.7-.2-3.4-1.7-5-5.6-5-9.2 0-6.2.1-12.4 0-18.5zM235.3 224.3c6.7-3.6 16.8 0 17.7 8.1-3.5.8-3.6-3.2-5.6-4.9-4.1-3.5-11-2.6-14.1 1.8-3.3 4.8-3.3 11.6-.2 16.5 2.9 4.6 10 5.9 14 2.2 2.1-1.7 2.8-4.4 3.4-6.9h2.9c-.7 3.5-1.9 7.2-5 9.3-6.1 4.3-15.8 1.9-18.8-5-3.2-7-1.8-17.3 5.7-21.1zM142.2 223.7l3-.1v12.2h16.5v-12.2h2.9c0 9.4-.1 18.8 0 28.2-.7.1-2.2.2-2.9.3v-13.8h-16.5v13.6h-2.9c-.1-9.4 0-18.8-.1-28.2zM218.1 238.2c5.8-2.1 6.3-11.4.5-13.7-5.7-1.8-11.7-.5-17.6-.9.1 9.4 0 18.9 0 28.3h2.8c0-4.1 0-8.2-.1-12.4 4.2-.1 8.4-.4 12.5.1 4.3 2.3 2.8 8.1 3.8 12.1.8 0 2.4.1 3.2.2-1.8-4.5.7-11.4-5.1-13.7zm-2.1-1.5c-4 .5-8.2.5-12.2.1.1-3.6 0-7.1.1-10.7 4.2.2 8.5-.4 12.7.3 4.7 1.5 4.2 9.3-.6 10.3zM259.2 223.6h2.9v12.2h16.5v-12.2l3.2-.2c-.5 9.4-.2 18.9-.2 28.3l-2.9.4c.1-4.6 0-9.2 0-13.9h-16.6c0 3.9.1 7.8 0 11.7-.1.6-.2 1.6-.2 2.2-.6-.1-1.9-.3-2.5-.4l-.1-.8c-.2-9 0-18.1-.1-27.3z"/>
  </symbol>
  <symbol id="download" viewBox="0 0 16 16">
    <path d="M11.166 11.985L9 14.222v-7.03c0-.285-.224-.517-.5-.517s-.5.232-.5.517v7.03l-2.167-2.237c-.19-.197-.5-.197-.69 0-.19.196-.19.516 0 .712l2.983 3.08c.004.004.003.013.008.018.006.007.003.018.01.024.006.005.016.002.022.01.083.077.19.125.31.132.007 0 .01.003.017.003l.008.002.01-.002c.008 0 .014-.006.022-.006.1-.01.187-.052.26-.113.022-.015.05-.01.066-.027.013-.013.008-.032.02-.046.003-.005.01-.007.012-.012l2.97-3.064c.19-.196.19-.516 0-.712-.194-.198-.503-.198-.694 0zm1.094-7.773C11.672 2.352 9.998 1 8 1 5.826 1 4.012 2.59 3.592 4.705 1.542 5.14 0 7.013 0 9.256c0 2.39 1.753 4.334 4 4.595V12.82c-1.694-.252-3-1.742-3-3.56C1 7.26 2.567 5.644 4.5 5.644 4.5 3.65 6.067 2.032 8 2.032c1.77 0 3.215 1.358 3.45 3.118C13.43 5.26 15 6.933 15 9c0 1.48-.814 2.75-2 3.395v1.154c1.756-.722 3-2.482 3-4.55 0-2.35-1.604-4.31-3.74-4.788z"/>
  </symbol>
</svg>
